<svg xmlns="http://www.w3.org/2000/svg" viewBox="6 3.5 9 9">
    <mask id="mask1">
        <path d="M7 8A1 1 0 0014 8 1 1 0 007 8M11.6 5.7C12.6 5.7 13.6 7.7 12.6 7.7S10.5 5.7 11.6 5.7"
            fill="white"/>
    </mask>

    <path d="M7 8A1 1 0 0014 8 1 1 0 007 8"
    fill="hsl(230, 20%, 10%)"/>

    <path d="M7 8A1 1 0 0014 8 1 1 0 007 8M11.6 5.7C12.6 5.7 13.6 7.7 12.6 7.7S10.5 5.7 11.6 5.7"
    fill="hsl(230, 40%, 50%)"/>

    <path d="M9 4C8 5 7 6 8 8S9.4 9.4 10.1 9.9 8.5 11.3 10.6 11.8C5 13.6 3.1 5.1 9 4"
    fill="hsl(230, 20%, 10%)" mask="url(#mask1)"/>

    <path d="M 9 4.5 C 10.9 4.5 12.5 5.2 12.5 6.9 S 13.6 9 12.5 11 C 17.3 8.9 13.5 2.3 9 4.5"
    fill="hsl(230, 40%, 60%)" mask="url(#mask1)"/>
</svg>